<svg xmlns="http://www.w3.org/2000/svg" width="1780" height="605.68" viewBox="0 0 1780 605.68"><title>Artboard 1</title><polygon points="516.65 363.26 494.47 363.26 494.47 343.83 547.5 343.83 614.74 464.54 615.18 464.54 615.18 363.26 593.47 363.26 593.47 343.83 657.26 343.83 657.26 363.26 634.4 363.26 634.4 500.66 609.93 500.66 536.3 368.05 535.86 368.05 535.86 479.63 558.26 479.63 558.26 499.06 494.47 499.06 494.47 479.63 516.65 479.63 516.65 363.26 516.65 363.26"/><polygon points="702.54 363.26 682.42 363.26 682.42 343.83 811.15 343.83 811.15 390.45 791.94 390.45 791.94 363.26 725.86 363.26 725.86 409.42 775.91 409.42 775.91 428.85 725.86 428.85 725.86 479.63 791.94 479.63 791.94 451.28 811.15 451.28 811.15 499.06 682.42 499.06 682.42 479.63 702.54 479.63 702.54 363.26 702.54 363.26"/><polygon points="854.5 363.26 835.75 363.26 835.75 343.83 895.19 343.83 895.19 363.26 876.68 363.26 905.71 464.76 906.17 464.76 934.08 363.26 915.55 363.26 915.55 343.83 986.88 343.83 986.88 363.26 968.61 363.26 996.96 464.76 997.39 464.76 1025.99 363.26 1007.47 363.26 1007.47 343.83 1064.39 343.83 1064.39 363.26 1046.1 363.26 1007.47 500.66 985.27 500.66 950.53 377.89 950.07 377.89 915.55 500.66 894.05 500.66 854.5 363.26 854.5 363.26"/><path d="M1239.59,342.38v58l-37.28-.29c-3.91-16.84-14.56-25.08-30.73-25.08-26.08,0-34.45,16.93-34.45,47.52,0,29.05,7.95,45.76,32.1,45.76,17.79,0,29.65-8.41,35-33.07l37.2,13.26c-11.42,43.06-46.18,55.78-76.82,55.78-66.3,0-84.15-47.3-84.15-82.13,0-48.73,33.16-82.37,81.64-82.37,19,0,42.25,8.89,51.19,21.3V342.38Z"/><polygon points="1273.67 466.95 1299.28 466.95 1299.28 375.91 1273.67 375.91 1273.67 343.83 1376.97 343.83 1376.97 375.91 1351.36 375.91 1351.36 466.95 1376.97 466.95 1376.97 499.06 1273.67 499.06 1273.67 466.95 1273.67 466.95"/><polygon points="1572.88 406.24 1543.39 406.24 1543.39 375.91 1516.35 375.91 1516.35 466.95 1538.42 466.95 1538.42 500.73 1442.2 500.57 1442.2 468.45 1464.26 466.95 1464.26 375.91 1437.23 375.91 1437.23 406.24 1407.74 406.24 1407.74 343.83 1572.88 343.83 1572.88 406.24 1572.88 406.24"/><polygon points="1642.25 466.95 1662.93 466.95 1662.54 434.67 1620.62 375.91 1599.52 375.91 1599.52 343.83 1680.43 343.83 1680.43 375.91 1665.02 375.91 1692.32 408.65 1718.66 375.91 1703.93 375.91 1703.93 343.83 1779.99 343.83 1779.99 375.91 1758.52 375.91 1713.91 434.67 1713.91 466.95 1734.56 466.95 1734.56 499.06 1642.25 499.06 1642.25 466.95 1642.25 466.95"/><path d="M214.26,381.16h12.5v55.55l-60.5-92.33H94.36v36.78h17.11V461.3H94.36v36.79H161.1V461.3H147.5V395.72l69.35,104.38h46V381.16h17V344.38H214.26v36.78Zm111.84-94V122l29.47,6.81V278.66l-29.47,8.53ZM184.53,568.69A147.56,147.56,0,1,1,332.08,421.15,147.56,147.56,0,0,1,184.53,568.69ZM29.32,269.12l-13.72-2.53V115.76l13.72-1.57V269.12ZM41.94,112.46l13.73-1.56V274l-13.73-2.53v-159ZM54.09,71.37l.17-.07,35.2,3.93v24l12.71,1.41v165l-27.91,9V91.52L54.09,94.69V71.37ZM150.6,203,163,204.4v23.17l-12.38-1.84V203Zm0-32.74L163,171v23.15L150.6,193V170.28Zm0-32.73,12.38.08v23.15l-12.38-.53v-22.7Zm0-34,12.38-.62V126l-12.38.15V103.5Zm0-34.06L163,68.14V91.31l-12.38.84V69.44Zm0-34,12.38-2V56.56L150.6,58.09V35.4ZM174,205.67l12.39,1.45v24L174,229.24V205.67Zm0-34,12.39.77v24L174,195.25V171.68Zm0-34,12.39.11v24L174,161.26V137.69Zm0-35.33,12.39-.61v24l-12.39.13V102.36ZM174,67l12.39-1.3v24L174,90.56V67Zm0-35.33,12.39-2v24L174,55.21V31.64Zm30.2-17.52,35.16,11.53V225l-35.16,7.95V14.12Zm85.07,210,16.29,2.28v31.23L289.23,254V224.12Zm0-44.75,16.29.22V210.8l-16.29-1.6V179.37Zm0-44.75,16.29-1.87V164l-16.29.48V134.61Zm79.8,249V118.06l-17.22-4V101.72l-26.9-8.5-36,5.42v15.77l-19.74,3.27v85.65l-16.36-2.53V15.91L204.38,0,133,13.94V201.27L115.66,204V88.59L102.95,87.2v-24L53.58,57.71,17.68,65.4v35L0,103.19v318C0,523.05,82.61,605.68,184.53,605.68s184.53-82.62,184.53-184.53l0-37.55Z"/></svg>