<svg xmlns="http://www.w3.org/2000/svg" width="1.59in" height="1.49in" viewBox="0 0 114.34 107.56">
	<title>Artboard 1</title>
	<path fill="#ffffff" d="M2,95H0V93.29H4.72l6,10.74h0V95H8.81V93.29h5.67V95h-2v12.22H10.27L3.72,95.44h0v9.92h2v1.73H0v-1.73H2Z"/>
	<path fill="#ffffff" d="M18.51,95H16.72V93.29H28.17v4.15H26.46V95H20.58v4.11H25v1.73H20.58v4.52h5.88v-2.52h1.71v4.25H16.72v-1.73h1.79Z"/>
	<path fill="#ffffff" d="M32,95H30.35V93.29h5.29V95H34l2.58,9h0l2.48-9H37.45V93.29H43.8V95H42.17l2.52,9h0l2.54-9H45.63V93.29h5.06V95H49.06l-3.44,12.22h-2L40.56,96.32h0l-3.07,10.92H35.54Z"/>
	<path fill="#ffffff" d="M66.27,93.16v5.16L63,98.3a2.59,2.59,0,0,0-2.73-2.23c-2.32,0-3.07,1.5-3.07,4.23s.71,4.07,2.86,4.07c1.58,0,2.64-.75,3.11-2.94l3.31,1.18c-1,3.83-4.11,5-6.83,5-5.9,0-7.48-4.21-7.48-7.3a7,7,0,0,1,7.26-7.33,6.19,6.19,0,0,1,4.55,1.89V93.16Z"/>
	<path fill="#ffffff" d="M69.3,104.24h2.28v-8.1H69.3V93.29h9.19v2.85H76.21v8.1h2.28v2.86H69.3Z"/>
	<path fill="#ffffff" d="M95.91,98.84H93.29v-2.7H90.89v8.1h2v3H84.29v-2.86l2-.13v-8.1h-2.4v2.7H81.23V93.29H95.91Z"/>
	<path fill="#ffffff" d="M102.08,104.24h1.84l0-2.87-3.73-5.23H98.28V93.29h7.2v2.85h-1.37l2.43,2.91,2.34-2.91h-1.31V93.29h6.76v2.85h-1.91l-4,5.23v2.87h1.84v2.86h-8.21Z"/>
	<path fill="#ffffff" d="M82.71,51.31V15.79l-2.3-.53V13.6l-3.6-1.14L72,13.19V15.3l-2.64.44V27.19l-2.19-.34V2.13L60.69,0,51.14,1.86V26.92l-2.32.36V11.85l-1.7-.19V8.45l-6.6-.73-4.8,1v4.68l-2.37.37V56.33a24.68,24.68,0,0,0,49.36,0ZM72,18l2.18-.25v4.18L72,22Zm0,6,2.18,0v4.18L72,28Zm0,6,2.18.31v4.18L72,34ZM60.66,1.89l4.7,1.54V30.09l-4.7,1.07Zm-4,2.34L58.28,4V7.18l-1.66.21Zm0,4.73,1.66-.17V12l-1.66.11Zm0,4.73,1.66-.08v3.21l-1.66,0Zm0,4.73h1.66v3.21l-1.66-.08Zm0,4.55,1.66.1v3.21l-1.66-.17Zm0,4.55,1.66.19v3.21l-1.66-.26ZM53.49,4.73l1.66-.27v3.1l-1.66.21Zm0,4.55,1.66-.17v3.1l-1.66.11Zm0,4.55,1.66-.08v3.1l-1.66,0Zm0,4.55h1.66v3.1l-1.66-.07Zm0,4.38,1.66.1V26l-1.66-.16Zm0,4.38,1.66.19v3.1l-1.66-.25ZM40.59,9.54h0l4.71.52v3.21l1.7.19V35.53l-3.73,1.21V12.24l-2.7.42ZM39,15l1.83-.21V36.64L39,36.31ZM37.27,36l-1.83-.34V15.48l1.83-.21ZM58,76.06A19.74,19.74,0,1,1,77.77,56.33,19.74,19.74,0,0,1,58,76.06ZM77,38.41V16.31l3.94.91v20ZM62,51h1.67v7.43L55.59,46.06H46V51h2.29V61.7H46v4.92H54.9V61.7H53.08V52.93l9.27,14h6.16V51h2.28V46.06H62Z"/>
</svg>
